<?xml version="1.0" encoding="utf-8"?>
<!-- Generator: Adobe Illustrator 19.1.0, SVG Export Plug-In . SVG Version: 6.00 Build 0)  -->
<!DOCTYPE svg PUBLIC "-//W3C//DTD SVG 1.1//EN" "http://www.w3.org/Graphics/SVG/1.1/DTD/svg11.dtd">
<svg version="1.1" id="Layer_1" xmlns="http://www.w3.org/2000/svg" xmlns:xlink="http://www.w3.org/1999/xlink" x="0px" y="0px"
	 width="25.3px" height="12.9px" viewBox="0 0 25.3 12.9" style="enable-background:new 0 0 25.3 12.9;" xml:space="preserve">
<style type="text/css">
	.st0{fill:#B0B0B1;}
</style>
<g>
	<g>
		<path class="st0" d="M15.1,3H1.5C0.7,3,0,2.3,0,1.5S0.7,0,1.5,0h13.6c0.8,0,1.5,0.7,1.5,1.5S16,3,15.1,3z"/>
		<path class="st0" d="M15.1,8H1.5C0.7,8,0,7.3,0,6.5S0.7,5,1.5,5h13.6c0.8,0,1.5,0.7,1.5,1.5S16,8,15.1,8z"/>
		<path class="st0" d="M15.1,12.9H1.5c-0.8,0-1.5-0.7-1.5-1.5s0.7-1.5,1.5-1.5h13.6c0.8,0,1.5,0.7,1.5,1.5S16,12.9,15.1,12.9z"/>
	</g>
	<polygon class="st0" points="20.4,5 20.4,6 22.9,8.5 25.3,6 25.3,5 	"/>
</g>
</svg>
