<?xml version="1.0" encoding="utf-8"?>
<!-- Generator: Adobe Illustrator 19.1.0, SVG Export Plug-In . SVG Version: 6.00 Build 0)  -->
<!DOCTYPE svg PUBLIC "-//W3C//DTD SVG 1.1//EN" "http://www.w3.org/Graphics/SVG/1.1/DTD/svg11.dtd">
<svg version="1.1" id="Layer_1" xmlns="http://www.w3.org/2000/svg" xmlns:xlink="http://www.w3.org/1999/xlink" x="0px" y="0px"
	 width="21.6px" height="20.5px" viewBox="0 0 21.6 20.5" style="enable-background:new 0 0 21.6 20.5;" xml:space="preserve">
<style type="text/css">
	.st0{fill:#C9222D;}
	.st1{fill:#FFFFFF;}
</style>
<g>
	<path class="st0" d="M19.7,0H1.9C0.9,0,0,0.9,0,1.9v12c0,1.1,0.9,1.9,1.9,1.9h6.2v4.7l4.7-4.7h6.9c1.1,0,1.9-0.9,1.9-1.9v-12
		C21.6,0.9,20.8,0,19.7,0z"/>
	<g>
		<path class="st1" d="M12.9,9.1h-1l-0.3,2.3h-0.9l0.3-2.3H9.7l-0.3,2.3H8.5l0.3-2.3h-1V8.3h1.2l0.2-1.4h-1V6h1.1l0.3-2.3h0.9
			L10.1,6h1.2l0.3-2.3h0.9L12.2,6h0.9v0.8h-1.1l-0.2,1.4h0.9V9.1z M10,6.8L9.8,8.3H11l0.2-1.4H10z"/>
	</g>
</g>
</svg>
